<?xml version="1.0" encoding="UTF-8"?>
<svg xmlns="http://www.w3.org/2000/svg" xmlns:xlink="http://www.w3.org/1999/xlink" width="100px" height="100px" viewBox="0 0 100 100" version="1.1">
<g id="surface1">
<path style=" stroke:none;fill-rule:nonzero;fill:rgb(44.313726%,50.196081%,73.725492%);fill-opacity:1;" d="M 79.375 99.101562 L 20.585938 98.984375 C 16.484375 98.984375 13.261719 95.488281 13.554688 91.40625 L 18.046875 28.769531 C 18.320312 25.058594 21.40625 22.207031 25.117188 22.207031 L 75.15625 22.304688 C 78.867188 22.304688 81.953125 25.195312 82.1875 28.886719 L 86.445312 91.523438 C 86.71875 95.644531 83.476562 99.121094 79.375 99.101562 Z M 79.375 99.101562 "/>
<path style=" stroke:none;fill-rule:nonzero;fill:rgb(58.823532%,64.705884%,83.92157%);fill-opacity:1;" d="M 25.527344 99.003906 C 21.425781 99.003906 18.203125 95.507812 18.496094 91.425781 L 22.988281 28.789062 C 23.242188 25.214844 26.132812 22.402344 29.6875 22.226562 L 25.097656 22.226562 C 21.386719 22.226562 18.300781 25.078125 18.027344 28.789062 L 13.535156 91.425781 C 13.242188 95.507812 16.484375 98.984375 20.566406 99.003906 L 79.355469 99.121094 C 79.472656 99.121094 79.589844 99.121094 79.707031 99.121094 Z M 25.527344 99.003906 "/>
<path style=" stroke:none;fill-rule:nonzero;fill:rgb(97.647059%,75.294119%,29.019609%);fill-opacity:1;" d="M 20.585938 99.003906 L 79.375 99.121094 C 83.476562 99.121094 86.71875 95.664062 86.445312 91.582031 L 86.074219 85.996094 L 13.945312 85.996094 L 13.554688 91.445312 C 13.261719 95.507812 16.503906 99.003906 20.585938 99.003906 Z M 20.585938 99.003906 "/>
<path style=" stroke:none;fill-rule:nonzero;fill:rgb(100%,85.490197%,62.352943%);fill-opacity:1;" d="M 25.527344 99.003906 C 21.425781 99.003906 18.203125 95.507812 18.496094 91.425781 L 18.886719 85.976562 L 13.945312 85.976562 L 13.554688 91.425781 C 13.261719 95.507812 16.503906 98.984375 20.585938 99.003906 Z M 25.527344 99.003906 "/>
<path style=" stroke:none;fill-rule:nonzero;fill:rgb(26.274511%,32.156864%,47.843137%);fill-opacity:1;" d="M 34.179688 32.871094 C 34.179688 31.628906 33.175781 30.625 31.933594 30.625 C 30.691406 30.625 29.6875 31.628906 29.6875 32.871094 C 29.6875 34.113281 30.691406 35.117188 31.933594 35.117188 C 33.175781 35.117188 34.179688 34.113281 34.179688 32.871094 Z M 34.179688 32.871094 "/>
<path style=" stroke:none;fill-rule:nonzero;fill:rgb(26.274511%,32.156864%,47.843137%);fill-opacity:1;" d="M 70.3125 32.871094 C 70.3125 31.628906 69.308594 30.625 68.066406 30.625 C 66.824219 30.625 65.820312 31.628906 65.820312 32.871094 C 65.820312 34.113281 66.824219 35.117188 68.066406 35.117188 C 69.308594 35.117188 70.3125 34.113281 70.3125 32.871094 Z M 70.3125 32.871094 "/>
<path style=" stroke:none;fill-rule:nonzero;fill:rgb(7.450981%,19.607843%,37.64706%);fill-opacity:1;" d="M 87.324219 91.503906 L 86.953125 85.9375 C 86.953125 85.917969 86.953125 85.917969 86.953125 85.898438 L 83.085938 28.847656 C 82.8125 24.6875 79.316406 21.445312 75.15625 21.425781 L 68.964844 21.40625 L 68.964844 18.964844 C 68.964844 8.515625 60.449219 0 50 0 C 39.550781 0 31.035156 8.515625 31.035156 18.964844 L 31.035156 21.367188 L 25.117188 21.347656 L 25.097656 21.347656 C 20.9375 21.347656 17.460938 24.589844 17.167969 28.730469 L 13.066406 85.898438 L 12.675781 91.347656 C 12.519531 93.535156 13.28125 95.722656 14.785156 97.34375 C 16.289062 98.945312 18.398438 99.882812 20.605469 99.882812 L 79.394531 100 L 79.414062 100 C 81.601562 100 83.730469 99.082031 85.214844 97.480469 C 86.699219 95.878906 87.480469 93.691406 87.324219 91.503906 Z M 32.8125 18.964844 C 32.8125 9.492188 40.527344 1.777344 50 1.777344 C 59.472656 1.777344 67.1875 9.492188 67.1875 18.964844 L 67.1875 21.425781 L 32.8125 21.367188 Z M 68.066406 31.503906 C 68.808594 31.503906 69.433594 32.109375 69.433594 32.871094 C 69.433594 33.632812 68.828125 34.238281 68.066406 34.238281 C 67.324219 34.238281 66.699219 33.632812 66.699219 32.871094 C 66.699219 32.109375 67.324219 31.503906 68.066406 31.503906 Z M 31.933594 31.503906 C 32.675781 31.503906 33.300781 32.109375 33.300781 32.871094 C 33.300781 33.632812 32.695312 34.238281 31.933594 34.238281 C 31.191406 34.238281 30.566406 33.632812 30.566406 32.871094 C 30.566406 32.109375 31.171875 31.503906 31.933594 31.503906 Z M 18.945312 28.867188 C 19.179688 25.644531 21.875 23.125 25.117188 23.125 L 25.136719 23.125 L 31.054688 23.144531 L 31.054688 29.863281 C 29.765625 30.253906 28.808594 31.445312 28.808594 32.871094 C 28.808594 34.609375 30.214844 36.015625 31.953125 36.015625 C 33.691406 36.015625 35.097656 34.609375 35.097656 32.871094 C 35.097656 31.445312 34.140625 30.253906 32.851562 29.863281 L 32.851562 23.144531 L 67.226562 23.203125 L 67.226562 29.863281 C 65.9375 30.253906 64.980469 31.445312 64.980469 32.871094 C 64.980469 34.609375 66.386719 36.015625 68.125 36.015625 C 69.863281 36.015625 71.269531 34.609375 71.269531 32.871094 C 71.269531 31.445312 70.3125 30.253906 69.023438 29.863281 L 69.023438 23.203125 L 75.214844 23.222656 C 78.4375 23.222656 81.152344 25.761719 81.367188 28.984375 L 85.175781 85.097656 L 14.902344 85.097656 Z M 83.90625 96.269531 C 82.734375 97.539062 81.132812 98.222656 79.394531 98.222656 L 79.375 98.222656 L 20.585938 98.105469 C 18.847656 98.105469 17.246094 97.402344 16.074219 96.132812 C 14.902344 94.863281 14.316406 93.203125 14.433594 91.484375 L 14.765625 86.855469 L 85.214844 86.855469 L 85.546875 91.601562 C 85.683594 93.359375 85.078125 95 83.90625 96.269531 Z M 83.90625 96.269531 "/>
</g>
</svg>
