<?xml version="1.0" encoding="UTF-8"?>
<svg xmlns="http://www.w3.org/2000/svg" xmlns:xlink="http://www.w3.org/1999/xlink" width="100px" height="100px" viewBox="0 0 100 100" version="1.1">
<g id="surface1">
<path style=" stroke:none;fill-rule:nonzero;fill:rgb(82.745099%,77.254903%,80.000001%);fill-opacity:1;" d="M 100 85.070312 C 100 83.582031 79.609375 82.375 54.453125 82.375 C 29.300781 82.375 8.910156 83.582031 8.910156 85.070312 C 8.910156 86.5625 29.300781 87.769531 54.453125 87.769531 C 79.609375 87.769531 100 86.5625 100 85.070312 Z M 100 85.070312 "/>
<path style=" stroke:none;fill-rule:nonzero;fill:rgb(93.725491%,20%,53.333336%);fill-opacity:1;" d="M 67.785156 46.03125 C 74.765625 53.015625 70.957031 76.34375 53.660156 82.214844 C 41.125 86.5 3.039062 88.722656 0.65625 80.945312 C -2.199219 71.425781 3.195312 97.925781 38.109375 50.316406 C 45.886719 39.527344 60.800781 39.050781 67.785156 46.03125 Z M 67.785156 46.03125 "/>
<path style=" stroke:none;fill-rule:nonzero;fill:rgb(73.725492%,3.137255%,41.960785%);fill-opacity:1;" d="M 66.675781 48.414062 C 73.65625 55.394531 70.957031 76.34375 53.503906 82.214844 C 40.964844 86.5 2.878906 88.722656 0.5 80.945312 C -2.359375 71.425781 10.65625 102.84375 45.566406 55.078125 C 53.503906 44.445312 59.691406 41.429688 66.675781 48.414062 Z M 66.675781 48.414062 "/>
<path style=" stroke:none;fill-rule:nonzero;fill:rgb(62.7451%,0%,37.254903%);fill-opacity:1;" d="M 66.675781 48.414062 C 73.65625 55.394531 70.957031 76.34375 53.503906 82.214844 "/>
<path style=" stroke:none;fill-rule:nonzero;fill:rgb(18.039216%,60.784316%,80.000001%);fill-opacity:1;" d="M 99.207031 12.230469 L 85.875 12.230469 L 64.292969 36.828125 C 62.867188 38.257812 62.867188 40.636719 64.292969 42.066406 L 70.007812 47.9375 C 71.433594 49.367188 73.816406 49.367188 75.242188 47.9375 L 99.207031 26.671875 Z M 99.207031 12.230469 "/>
<path style=" stroke:none;fill-rule:nonzero;fill:rgb(12.54902%,49.411765%,71.764708%);fill-opacity:1;" d="M 64.609375 42.699219 L 70.164062 47.777344 C 71.59375 49.207031 73.972656 49.207031 75.402344 47.9375 L 99.207031 26.832031 L 99.207031 12.230469 L 86.511719 12.230469 "/>
<path style=" stroke:none;fill-rule:nonzero;fill:rgb(5.490196%,41.960785%,66.666669%);fill-opacity:1;" d="M 70.164062 47.621094 C 71.59375 49.046875 73.972656 49.207031 75.402344 47.777344 L 99.207031 26.671875 L 99.207031 12.230469 "/>
<path style=" stroke:none;fill-rule:nonzero;fill:rgb(95.686275%,80.392158%,15.294118%);fill-opacity:1;" d="M 70.773438 52.800781 L 59.550781 41.582031 L 65.722656 35.410156 L 76.945312 46.628906 Z M 70.773438 52.800781 "/>
<path style=" stroke:none;fill-rule:nonzero;fill:rgb(92.941177%,72.156864%,6.666667%);fill-opacity:1;" d="M 70.625 52.75 L 61.875 44 L 68.046875 37.828125 L 76.796875 46.582031 Z M 70.625 52.75 "/>
</g>
</svg>
