<?xml version="1.0" encoding="UTF-8"?>
<svg xmlns="http://www.w3.org/2000/svg" xmlns:xlink="http://www.w3.org/1999/xlink" width="100px" height="100px" viewBox="0 0 100 100" version="1.1">
<g id="surface1">
<path style=" stroke:none;fill-rule:nonzero;fill:rgb(100%,40.000001%,0%);fill-opacity:1;" d="M 50 0 C 22.382812 0 0 22.382812 0 50 C 0 77.617188 22.382812 100 50 100 C 77.617188 100 100 77.617188 100 50 C 100 22.382812 77.617188 0 50 0 Z M 35.089844 39.464844 L 10.667969 51.707031 L 10.667969 51.835938 L 35.089844 64.078125 L 35.089844 68.386719 L 6.105469 53.460938 L 6.105469 50.085938 L 35.089844 35.160156 Z M 43.335938 70.882812 L 39.148438 70.882812 L 56.574219 25.597656 L 60.820312 25.597656 Z M 64.757812 68.382812 L 64.757812 64.074219 L 89.367188 51.835938 L 89.367188 51.703125 L 64.757812 39.460938 L 64.757812 35.15625 L 93.742188 50.019531 L 93.742188 53.523438 Z M 64.757812 68.382812 "/>
</g>
</svg>
