<?xml version="1.0" encoding="UTF-8"?>
<svg xmlns="http://www.w3.org/2000/svg" xmlns:xlink="http://www.w3.org/1999/xlink" width="100px" height="100px" viewBox="0 0 100 100" version="1.1">
<g id="surface1">
<path style=" stroke:none;fill-rule:nonzero;fill:rgb(100%,77.64706%,0%);fill-opacity:1;" d="M 48.214844 34.820312 L 51.785156 34.820312 L 51.785156 36.605469 L 48.214844 36.605469 Z M 48.214844 34.820312 "/>
<path style=" stroke:none;fill-rule:nonzero;fill:rgb(80.000001%,60.000002%,40.000001%);fill-opacity:1;" d="M 57.144531 83.035156 L 57.144531 79.464844 L 51.785156 79.464844 L 51.785156 83.035156 Z M 62.679688 82.679688 L 65.179688 88.394531 L 34.820312 88.394531 L 37.144531 83.035156 L 48.214844 83.035156 L 48.214844 79.464844 L 37.5 79.464844 L 37.5 70.535156 L 62.5 70.535156 L 62.5 81.964844 C 62.5 82.144531 62.5 82.5 62.679688 82.679688 Z M 62.679688 82.679688 "/>
<path style=" stroke:none;fill-rule:nonzero;fill:rgb(100%,77.64706%,0%);fill-opacity:1;" d="M 47.097656 33.707031 L 52.902344 33.707031 L 52.902344 37.722656 L 47.097656 37.722656 Z M 47.097656 33.707031 "/>
<path style=" stroke:none;fill-rule:nonzero;fill:rgb(18.431373%,70.588237%,76.078433%);fill-opacity:1;" d="M 77.457031 76.5625 L 77.457031 80.582031 L 84.597656 80.582031 L 84.597656 81.917969 L 77.457031 81.917969 L 77.457031 89.507812 L 92.1875 89.507812 L 92.1875 76.5625 Z M 77.457031 76.5625 "/>
<path style=" stroke:none;fill-rule:nonzero;fill:rgb(100%,60.000002%,0%);fill-opacity:1;" d="M 54.644531 21.207031 L 45.355469 21.207031 C 43.304688 21.207031 41.742188 22.769531 41.742188 24.820312 L 41.742188 32.367188 L 58.257812 32.367188 L 58.257812 24.820312 C 58.257812 22.769531 56.695312 21.207031 54.644531 21.207031 Z M 54.644531 21.207031 "/>
<path style=" stroke:none;fill-rule:nonzero;fill:rgb(100%,60.000002%,0%);fill-opacity:1;" d="M 7.8125 83.707031 L 27.902344 83.707031 L 27.902344 89.507812 L 7.8125 89.507812 Z M 7.8125 83.707031 "/>
<path style=" stroke:none;fill-rule:nonzero;fill:rgb(100%,97.254902%,93.725491%);fill-opacity:1;" d="M 7.8125 8.707031 L 7.8125 48.4375 L 14.398438 48.4375 L 15.289062 40.335938 L 14.710938 39.957031 C 12.878906 38.792969 11.832031 36.917969 11.832031 34.820312 C 11.832031 31.496094 14.53125 28.792969 17.855469 28.792969 C 19.308594 28.792969 20.847656 29.351562 21.941406 30.3125 L 22.457031 30.757812 L 40.492188 23.550781 L 40.667969 23.101562 C 41.429688 21.117188 43.214844 19.886719 45.335938 19.886719 L 54.621094 19.886719 C 57.386719 19.886719 59.574219 22.074219 59.574219 24.84375 L 59.574219 33.035156 C 59.574219 33.304688 59.175781 33.707031 58.90625 33.707031 L 54.21875 33.707031 L 54.21875 38.394531 C 54.21875 38.660156 53.816406 39.0625 53.550781 39.0625 L 46.40625 39.0625 C 46.136719 39.0625 45.738281 38.660156 45.738281 38.394531 L 45.738281 33.707031 L 41.050781 33.707031 C 40.78125 33.707031 40.378906 33.304688 40.378906 33.035156 L 40.378906 25.132812 L 23.304688 32.007812 L 23.550781 32.945312 C 23.707031 33.617188 23.882812 34.242188 23.882812 34.820312 C 23.882812 38.148438 21.183594 40.847656 17.855469 40.847656 L 16.695312 40.847656 L 15.691406 48.4375 L 92.1875 48.4375 L 92.1875 8.707031 Z M 7.8125 8.707031 "/>
<path style=" stroke:none;fill-rule:nonzero;fill:rgb(80.000001%,60.000002%,40.000001%);fill-opacity:1;" d="M 2.457031 55.132812 L 2.457031 65.179688 C 2.457031 66.785156 3.75 68.082031 5.355469 68.082031 L 11.875 68.082031 L 13.59375 55.132812 Z M 2.457031 55.132812 "/>
<path style=" stroke:none;fill-rule:nonzero;fill:rgb(80.000001%,60.000002%,40.000001%);fill-opacity:1;" d="M 3.570312 65.179688 C 3.570312 66.25 4.464844 66.964844 5.355469 66.964844 L 10.894531 66.964844 L 12.320312 56.25 L 3.570312 56.25 Z M 3.570312 65.179688 "/>
<path style=" stroke:none;fill-rule:nonzero;fill:rgb(60.000002%,40.000001%,19.607843%);fill-opacity:1;" d="M 2.457031 90.847656 L 97.542969 90.847656 L 97.542969 96.652344 L 2.457031 96.652344 Z M 2.457031 90.847656 "/>
<path style=" stroke:none;fill-rule:nonzero;fill:rgb(89.411765%,77.64706%,63.137257%);fill-opacity:1;" d="M 94.644531 3.347656 L 5.535156 3.347656 C 3.882812 3.347656 2.457031 4.710938 2.457031 6.25 L 2.457031 53.792969 L 13.683594 53.792969 L 14.085938 49.777344 L 7.144531 49.777344 C 6.695312 49.777344 6.472656 49.375 6.472656 49.105469 L 6.472656 8.035156 C 6.472656 7.589844 6.695312 7.367188 7.144531 7.367188 L 92.855469 7.367188 C 93.125 7.367188 93.527344 7.589844 93.527344 8.035156 L 93.527344 49.285156 C 93.527344 49.554688 93.125 49.957031 92.855469 49.957031 L 15.425781 49.957031 L 15.023438 53.972656 L 97.542969 53.972656 L 97.542969 6.429688 C 97.542969 4.664062 96.292969 3.347656 94.644531 3.347656 Z M 94.644531 3.347656 "/>
<path style=" stroke:none;fill-rule:nonzero;fill:rgb(85.09804%,80.392158%,75.686276%);fill-opacity:1;" d="M 8.929688 9.820312 L 81.25 13.035156 C 84.644531 13.214844 87.5 16.070312 87.5 19.464844 L 87.5 37.679688 C 87.5 41.070312 84.820312 43.929688 81.429688 44.105469 L 37.5 47.320312 L 91.070312 47.320312 L 91.070312 9.820312 Z M 8.929688 9.820312 "/>
<path style=" stroke:none;fill-rule:nonzero;fill:rgb(80.000001%,60.000002%,40.000001%);fill-opacity:1;" d="M 14.910156 55.132812 L 13.191406 68.082031 L 94.644531 68.082031 C 96.25 68.082031 97.542969 66.785156 97.542969 65.179688 L 97.542969 55.132812 Z M 50 64.0625 C 48.636719 64.0625 47.542969 62.96875 47.542969 61.605469 C 47.542969 60.246094 48.636719 59.152344 50 59.152344 C 51.363281 59.152344 52.457031 60.246094 52.457031 61.605469 C 52.457031 62.96875 51.363281 64.0625 50 64.0625 Z M 50 64.0625 "/>
<path style=" stroke:none;fill-rule:nonzero;fill:rgb(70.19608%,49.019608%,30.19608%);fill-opacity:1;" d="M 94.644531 56.25 L 94.644531 64.105469 C 94.644531 64.644531 94.105469 65.179688 93.570312 65.179688 L 14.820312 65.179688 L 14.644531 66.964844 L 94.644531 66.964844 C 95.714844 66.964844 96.429688 66.070312 96.429688 65.179688 L 96.429688 56.25 Z M 94.644531 56.25 "/>
<path style=" stroke:none;fill-rule:nonzero;fill:rgb(70.19608%,49.019608%,30.19608%);fill-opacity:1;" d="M 5.355469 66.964844 L 10.894531 66.964844 L 11.070312 65.179688 L 6.429688 65.179688 C 5.894531 65.179688 5.355469 64.644531 5.355469 64.105469 L 5.355469 56.25 L 3.570312 56.25 L 3.570312 65.179688 C 3.570312 66.070312 4.464844 66.964844 5.355469 66.964844 Z M 5.355469 66.964844 "/>
<path style=" stroke:none;fill-rule:nonzero;fill:rgb(70.19608%,49.019608%,30.19608%);fill-opacity:1;" d="M 62.5 70.535156 L 42.855469 71.964844 C 40.714844 72.144531 39.105469 73.570312 38.570312 75.714844 L 37.5 79.464844 L 37.5 70.535156 Z M 62.5 70.535156 "/>
<path style=" stroke:none;fill-rule:nonzero;fill:rgb(25.882354%,12.941177%,4.313726%);fill-opacity:1;" d="M 51.785156 79.464844 L 57.144531 79.464844 L 57.144531 83.035156 L 51.785156 83.035156 Z M 50 58.035156 C 51.964844 58.035156 53.570312 59.644531 53.570312 61.605469 C 53.570312 63.570312 51.964844 65.179688 50 65.179688 C 48.035156 65.179688 46.429688 63.570312 46.429688 61.605469 C 46.429688 59.644531 48.035156 58.035156 50 58.035156 Z M 14.285156 34.820312 C 14.285156 36.785156 15.894531 38.394531 17.855469 38.394531 C 19.820312 38.394531 21.429688 36.785156 21.429688 34.820312 C 21.429688 32.855469 19.820312 31.25 17.855469 31.25 C 15.894531 31.25 14.285156 32.855469 14.285156 34.820312 Z M 91.070312 88.394531 L 91.070312 77.679688 L 78.570312 77.679688 L 78.570312 79.464844 L 85.714844 79.464844 L 85.714844 83.035156 L 78.570312 83.035156 L 78.570312 88.394531 Z M 33.929688 81.605469 L 33.929688 70.535156 L 14.105469 70.535156 L 12.679688 81.25 L 28.570312 81.25 C 29.464844 81.25 30.355469 82.144531 30.355469 83.035156 L 30.355469 88.394531 L 30.894531 88.394531 Z M 51.785156 34.820312 L 48.214844 34.820312 L 48.214844 36.605469 L 51.785156 36.605469 Z M 65.179688 88.394531 L 62.679688 82.679688 C 62.5 82.5 62.5 82.144531 62.5 81.964844 L 62.5 70.535156 L 37.5 70.535156 L 37.5 79.464844 L 48.214844 79.464844 L 48.214844 83.035156 L 37.144531 83.035156 L 34.820312 88.394531 Z M 64.285156 66.964844 L 94.644531 66.964844 C 95.714844 66.964844 96.429688 66.070312 96.429688 65.179688 L 96.429688 56.25 L 15.894531 56.25 L 14.464844 66.964844 Z M 46.429688 31.25 L 57.144531 31.25 L 57.144531 24.820312 C 57.144531 23.394531 56.070312 22.320312 54.644531 22.320312 L 45.355469 22.320312 C 43.929688 22.320312 42.855469 23.394531 42.855469 24.820312 L 42.855469 31.25 Z M 5.535156 66.964844 L 11.070312 66.964844 L 12.5 56.25 L 3.570312 56.25 L 3.570312 65.179688 C 3.570312 66.070312 4.464844 66.964844 5.535156 66.964844 Z M 28.570312 91.964844 L 3.570312 91.964844 L 3.570312 95.535156 L 96.429688 95.535156 L 96.429688 91.964844 Z M 8.929688 84.820312 L 8.929688 88.394531 L 26.785156 88.394531 L 26.785156 84.820312 Z M 7.144531 81.25 L 9.105469 81.25 L 10.535156 70.535156 L 5.535156 70.535156 C 2.5 70.535156 0 68.035156 0 65.179688 L 0 6.429688 C 0 3.394531 2.5 0.894531 5.535156 0.894531 L 94.644531 0.894531 C 97.679688 0.894531 100 3.394531 100 6.429688 L 100 65.179688 C 100 68.214844 97.5 70.535156 94.644531 70.535156 L 66.070312 70.535156 L 66.070312 81.605469 L 69.105469 88.394531 L 75 88.394531 L 75 75.894531 C 75 75 75.894531 74.105469 76.785156 74.105469 L 92.855469 74.105469 C 93.75 74.105469 94.644531 75 94.644531 75.894531 L 94.644531 88.394531 L 98.214844 88.394531 C 99.105469 88.394531 100 89.285156 100 90.179688 L 100 97.320312 C 100 98.214844 99.105469 99.105469 98.214844 99.105469 L 1.785156 99.105469 C 0.714844 99.105469 0 98.214844 0 97.320312 L 0 90.179688 C 0 89.285156 0.714844 88.394531 1.785156 88.394531 L 5.355469 88.394531 L 5.355469 83.035156 C 5.355469 82.144531 6.070312 81.25 7.144531 81.25 Z M 7.144531 6.25 L 92.855469 6.25 C 93.75 6.25 94.644531 6.964844 94.644531 8.035156 L 94.644531 49.105469 C 94.644531 50 93.75 50.894531 92.855469 50.894531 L 16.605469 50.894531 L 16.429688 52.679688 L 96.429688 52.679688 L 96.429688 6.25 C 96.429688 5.355469 95.535156 4.464844 94.644531 4.464844 L 5.535156 4.464844 C 4.464844 4.464844 3.570312 5.355469 3.570312 6.429688 L 3.570312 52.855469 L 12.679688 52.855469 L 12.855469 51.070312 L 7.144531 51.070312 C 6.070312 51.070312 5.355469 50.179688 5.355469 49.285156 L 5.355469 8.035156 C 5.355469 6.964844 6.070312 6.25 7.144531 6.25 Z M 91.070312 9.820312 L 8.929688 9.820312 L 8.929688 47.320312 L 13.394531 47.320312 L 14.105469 40.894531 C 11.964844 39.644531 10.714844 37.320312 10.714844 34.820312 C 10.714844 30.894531 13.929688 27.679688 17.855469 27.679688 C 19.644531 27.679688 21.429688 28.394531 22.679688 29.464844 L 39.644531 22.679688 C 40.535156 20.355469 42.679688 18.75 45.355469 18.75 L 54.644531 18.75 C 58.035156 18.75 60.714844 21.429688 60.714844 24.820312 L 60.714844 33.035156 C 60.714844 33.929688 59.820312 34.820312 58.929688 34.820312 L 55.355469 34.820312 L 55.355469 38.394531 C 55.355469 39.285156 54.464844 40.179688 53.570312 40.179688 L 46.429688 40.179688 C 45.535156 40.179688 44.644531 39.285156 44.644531 38.394531 L 44.644531 34.820312 L 41.070312 34.820312 C 40.179688 34.820312 39.285156 33.929688 39.285156 33.035156 L 39.285156 26.785156 L 24.644531 32.679688 C 24.820312 33.394531 25 34.105469 25 34.820312 C 25 38.75 21.785156 41.964844 17.855469 41.964844 L 17.679688 41.964844 L 16.964844 47.320312 L 91.070312 47.320312 Z M 91.070312 9.820312 "/>
</g>
</svg>
