<?xml version="1.0" encoding="UTF-8"?>
<svg xmlns="http://www.w3.org/2000/svg" xmlns:xlink="http://www.w3.org/1999/xlink" width="100px" height="100px" viewBox="0 0 100 100" version="1.1">
<g id="surface1">
<path style="fill:none;stroke-width:2;stroke-linecap:round;stroke-linejoin:round;stroke:rgb(0%,0%,0%);stroke-opacity:1;stroke-miterlimit:4;" d="M 5.7 15 C 4.034063 15.635625 3 16.520625 3 17.499375 C 3 19.4325 7.029375 21 12 21 C 16.970625 21 21 19.4325 21 17.499375 C 21 16.520625 19.965937 15.635625 18.3 15 M 12 9 L 12.010312 9 M 18 9 C 18 13.064063 13.5 15 12 18 C 10.5 15 6 13.064063 6 9 C 6 5.685937 8.685937 3 12 3 C 15.314062 3 18 5.685937 18 9 Z M 13.000312 9 C 13.000312 9.552188 12.552187 10.000312 12 10.000312 C 11.447812 10.000312 10.999688 9.552188 10.999688 9 C 10.999688 8.447812 11.447812 7.999687 12 7.999687 C 12.552187 7.999687 13.000312 8.447812 13.000312 9 Z M 13.000312 9 " transform="matrix(4.166667,0,0,4.166667,0,0)"/>
</g>
</svg>
