<?xml version="1.0" encoding="UTF-8"?>
<svg xmlns="http://www.w3.org/2000/svg" xmlns:xlink="http://www.w3.org/1999/xlink" width="100px" height="100px" viewBox="0 0 100 100" version="1.1">
<defs>
<filter id="alpha" filterUnits="objectBoundingBox" x="0%" y="0%" width="100%" height="100%">
  <feColorMatrix type="matrix" in="SourceGraphic" values="0 0 0 0 1 0 0 0 0 1 0 0 0 0 1 0 0 0 1 0"/>
</filter>
<mask id="mask0">
  <g filter="url(#alpha)">
<rect x="0" y="0" width="100" height="100" style="fill:rgb(0%,0%,0%);fill-opacity:0.341176;stroke:none;"/>
  </g>
</mask>
<clipPath id="clip1">
  <rect x="0" y="0" width="100" height="100"/>
</clipPath>
<g id="surface5" clip-path="url(#clip1)">
<path style=" stroke:none;fill-rule:nonzero;fill:rgb(53.725493%,10.980392%,0%);fill-opacity:1;" d="M 39.953125 79.628906 L 39.953125 78.933594 C 39.738281 79.167969 39.527344 79.398438 39.316406 79.628906 Z M 39.953125 79.628906 "/>
<path style=" stroke:none;fill-rule:nonzero;fill:rgb(53.725493%,10.980392%,0%);fill-opacity:1;" d="M 75.546875 13.996094 C 75.179688 16.144531 74.726562 18.265625 74.199219 20.367188 L 79.910156 20.367188 L 79.910156 25.1875 L 73.355469 25.1875 C 73.355469 25.1875 71.613281 29.046875 70.574219 31.75 L 84.082031 31.75 C 86.558594 31.75 88.566406 33.757812 88.566406 36.234375 L 88.566406 63.753906 C 88.566406 66.230469 86.558594 68.238281 84.082031 68.238281 L 56.558594 68.238281 C 54.261719 68.238281 52.367188 66.507812 52.105469 64.28125 C 48.019531 69.75 43.847656 74.671875 39.953125 78.933594 L 39.953125 79.628906 L 39.316406 79.628906 C 37.160156 81.964844 35.097656 84.09375 33.191406 86 L 99.996094 86 L 99.996094 68.34375 L 96.214844 68.34375 C 94.75 68.34375 93.5625 67.15625 93.5625 65.6875 L 93.5625 34.566406 C 93.5625 33.101562 94.75 31.914062 96.214844 31.914062 L 99.996094 31.914062 L 99.996094 13.996094 Z M 53.269531 79.628906 L 46.71875 79.628906 L 46.71875 74.605469 L 53.269531 74.605469 Z M 66.589844 79.628906 L 60.039062 79.628906 L 60.039062 74.605469 L 66.589844 74.605469 Z M 79.910156 79.628906 L 73.355469 79.628906 L 73.355469 74.605469 L 79.910156 74.605469 Z M 93.226562 79.628906 L 86.675781 79.628906 L 86.675781 74.605469 L 93.226562 74.605469 Z M 93.226562 25.1875 L 86.675781 25.1875 L 86.675781 20.367188 L 93.226562 20.367188 Z M 93.226562 25.1875 "/>
</g>
</defs>
<g id="surface1">
<path style=" stroke:none;fill-rule:nonzero;fill:rgb(100%,31.37255%,13.725491%);fill-opacity:1;" d="M 10.042969 14 L 0 14 L 0 31.753906 L 3.78125 31.753906 C 5.246094 31.753906 6.433594 32.941406 6.433594 34.40625 L 6.433594 65.523438 C 6.433594 66.988281 5.246094 68.179688 3.78125 68.179688 L 0 68.179688 L 0 86.003906 L 100 86.003906 L 100 68.347656 L 96.21875 68.347656 C 94.753906 68.347656 93.566406 67.160156 93.566406 65.695312 L 93.566406 34.570312 C 93.566406 33.109375 94.753906 31.917969 96.21875 31.917969 L 100 31.917969 L 100 14 Z M 73.363281 20.371094 L 79.914062 20.371094 L 79.914062 25.191406 L 73.363281 25.191406 Z M 60.042969 20.371094 L 66.59375 20.371094 L 66.59375 25.191406 L 60.042969 25.191406 Z M 46.722656 20.371094 L 53.277344 20.371094 L 53.277344 25.191406 L 46.722656 25.191406 Z M 33.40625 20.371094 L 39.957031 20.371094 L 39.957031 25.191406 L 33.40625 25.191406 Z M 20.085938 20.371094 L 26.636719 20.371094 L 26.636719 25.191406 L 20.085938 25.191406 C 20.085938 25.191406 20.085938 20.371094 20.085938 20.371094 Z M 6.765625 20.371094 L 13.320312 20.371094 L 13.320312 25.191406 L 6.765625 25.191406 Z M 13.320312 79.632812 L 6.765625 79.632812 L 6.765625 74.609375 L 13.320312 74.609375 Z M 26.636719 79.632812 L 20.085938 79.632812 L 20.085938 74.609375 L 26.636719 74.609375 Z M 39.957031 79.632812 L 33.40625 79.632812 L 33.40625 74.609375 L 39.957031 74.609375 Z M 43.269531 68.242188 L 15.75 68.242188 C 13.273438 68.242188 11.265625 66.234375 11.265625 63.757812 L 11.265625 36.238281 C 11.265625 33.761719 13.273438 31.75 15.75 31.75 L 43.269531 31.75 C 45.746094 31.75 47.753906 33.761719 47.753906 36.238281 L 47.753906 63.757812 C 47.753906 66.234375 45.746094 68.242188 43.269531 68.242188 Z M 53.277344 79.632812 L 46.722656 79.632812 L 46.722656 74.609375 L 53.277344 74.609375 Z M 66.59375 79.632812 L 60.042969 79.632812 L 60.042969 74.609375 L 66.59375 74.609375 Z M 79.914062 79.632812 L 73.363281 79.632812 L 73.363281 74.609375 L 79.914062 74.609375 Z M 56.566406 68.242188 C 54.089844 68.242188 52.082031 66.234375 52.082031 63.757812 L 52.082031 36.238281 C 52.082031 33.761719 54.089844 31.75 56.566406 31.75 L 84.085938 31.75 C 86.5625 31.75 88.570312 33.761719 88.570312 36.238281 L 88.570312 63.757812 C 88.570312 66.234375 86.5625 68.242188 84.085938 68.242188 Z M 93.234375 79.632812 L 86.679688 79.632812 L 86.679688 74.609375 L 93.234375 74.609375 Z M 93.234375 25.191406 L 86.679688 25.191406 L 86.679688 20.371094 L 93.234375 20.371094 Z M 93.234375 25.191406 "/>
<use xlink:href="#surface5" mask="url(#mask0)"/>
</g>
</svg>
