<?xml version="1.0" encoding="UTF-8"?>
<svg xmlns="http://www.w3.org/2000/svg" xmlns:xlink="http://www.w3.org/1999/xlink" width="100px" height="100px" viewBox="0 0 100 100" version="1.1">
<g id="surface1">
<path style=" stroke:none;fill-rule:nonzero;fill:rgb(15.294118%,23.137255%,47.843137%);fill-opacity:1;" d="M 100 50 C 100 22.386719 77.613281 0 50 0 C 22.386719 0 0 22.386719 0 50 C 0 77.613281 22.386719 100 50 100 C 77.613281 100 100 77.613281 100 50 Z M 100 50 "/>
<path style=" stroke:none;fill-rule:nonzero;fill:rgb(7.058824%,6.666667%,28.627452%);fill-opacity:1;" d="M 99.949219 47.835938 L 71.164062 19.015625 L 29.199219 81.347656 L 47.835938 99.949219 C 48.554688 99.980469 49.273438 100 50 100 C 77.613281 100 100 77.613281 100 50 C 100 49.273438 99.980469 48.554688 99.949219 47.835938 Z M 99.949219 47.835938 "/>
<path style=" stroke:none;fill-rule:nonzero;fill:rgb(100%,100%,100%);fill-opacity:1;" d="M 28.621094 23.035156 L 28.621094 76.964844 C 28.621094 79.511719 30.683594 81.574219 33.226562 81.574219 L 66.773438 81.574219 C 69.316406 81.574219 71.378906 79.511719 71.378906 76.964844 L 71.378906 23.035156 C 71.378906 20.488281 69.316406 18.425781 66.773438 18.425781 L 33.226562 18.425781 C 30.683594 18.425781 28.621094 20.488281 28.621094 23.035156 Z M 28.621094 23.035156 "/>
<path style=" stroke:none;fill-rule:nonzero;fill:rgb(84.705883%,84.705883%,84.705883%);fill-opacity:1;" d="M 66.773438 18.425781 L 49.777344 18.425781 L 49.777344 81.570312 L 66.773438 81.570312 C 69.316406 81.570312 71.378906 79.511719 71.378906 76.964844 L 71.378906 23.035156 C 71.378906 20.488281 69.320312 18.425781 66.773438 18.425781 Z M 66.773438 18.425781 "/>
<path style=" stroke:none;fill-rule:nonzero;fill:rgb(100%,77.64706%,10.588235%);fill-opacity:1;" d="M 66.773438 17.082031 L 33.226562 17.082031 C 29.941406 17.082031 27.273438 19.75 27.273438 23.035156 L 27.273438 76.964844 C 27.273438 80.25 29.941406 82.917969 33.226562 82.917969 L 66.773438 82.917969 C 70.058594 82.917969 72.726562 80.25 72.726562 76.96875 L 72.726562 23.035156 C 72.726562 19.75 70.058594 17.082031 66.773438 17.082031 Z M 29.964844 73.691406 L 29.96875 23.214844 L 70.035156 23.214844 L 70.035156 73.691406 Z M 29.964844 73.691406 "/>
<path style=" stroke:none;fill-rule:nonzero;fill:rgb(83.137256%,54.509807%,2.745098%);fill-opacity:1;" d="M 66.773438 17.082031 L 49.777344 17.082031 L 49.777344 23.214844 L 70.035156 23.214844 L 70.03125 73.691406 L 49.777344 73.691406 L 49.777344 82.917969 L 66.773438 82.917969 C 70.058594 82.917969 72.726562 80.25 72.726562 76.964844 L 72.726562 23.035156 C 72.726562 19.75 70.058594 17.082031 66.773438 17.082031 Z M 66.773438 17.082031 "/>
<path style=" stroke:none;fill-rule:nonzero;fill:rgb(7.058824%,6.666667%,28.627452%);fill-opacity:1;" d="M 52.019531 77.945312 C 52.019531 76.832031 51.117188 75.925781 50 75.925781 C 48.882812 75.925781 47.980469 76.832031 47.980469 77.945312 C 47.980469 79.0625 48.882812 79.964844 50 79.964844 C 51.117188 79.964844 52.019531 79.0625 52.019531 77.945312 Z M 52.019531 77.945312 "/>
</g>
</svg>
