<?xml version="1.0" encoding="UTF-8"?>
<svg xmlns="http://www.w3.org/2000/svg" xmlns:xlink="http://www.w3.org/1999/xlink" width="100px" height="800px" viewBox="0 0 100 100" version="1.1">
<g id="surface1">
<path style=" stroke:none;fill-rule:nonzero;fill:rgb(100%,97.254902%,93.725491%);fill-opacity:1;" d="M 81.152344 19.566406 L 81.152344 59.195312 C 81.179688 69.789062 75.816406 79.671875 66.921875 85.425781 L 50 96.414062 L 33.082031 85.410156 C 24.183594 79.65625 18.824219 69.773438 18.847656 59.179688 L 18.847656 19.566406 C 32.441406 18.550781 42.65625 13.566406 50 4.351562 C 57.34375 13.566406 67.558594 18.550781 81.152344 19.566406 Z M 71.167969 76.441406 C 76.789062 69.605469 78.855469 61.6875 77.871094 50.667969 C 77.789062 49.761719 76.992188 49.09375 76.085938 49.175781 C 75.179688 49.257812 74.511719 50.058594 74.59375 50.964844 C 75.371094 56.640625 74.699219 62.421875 72.640625 67.769531 L 71.3125 67.210938 L 71.3125 63.933594 L 68.035156 63.933594 L 68.035156 62.292969 C 68.035156 61.386719 67.300781 60.652344 66.394531 60.652344 L 62.050781 60.652344 C 62.75 59.164062 63.113281 57.542969 63.117188 55.898438 L 63.117188 50.816406 L 68.035156 50.816406 C 68.941406 50.816406 69.675781 50.082031 69.675781 49.175781 L 69.675781 45.898438 L 72.953125 45.898438 L 72.953125 42.617188 L 68.035156 42.617188 C 67.128906 42.617188 66.394531 43.351562 66.394531 44.257812 L 66.394531 47.535156 L 63.117188 47.535156 L 63.117188 45.734375 C 63.101562 40.691406 59.761719 36.261719 54.917969 34.863281 L 54.917969 32.78125 L 59.835938 32.78125 C 60.742188 32.78125 61.476562 32.046875 61.476562 31.140625 L 61.476562 27.863281 L 58.199219 27.863281 L 58.199219 29.5 L 53.277344 29.5 C 52.375 29.5 51.640625 30.234375 51.640625 31.140625 L 51.640625 34.421875 L 48.359375 34.421875 L 48.359375 31.140625 C 48.359375 30.234375 47.625 29.5 46.722656 29.5 L 41.800781 29.5 L 41.800781 27.863281 L 38.523438 27.863281 L 38.523438 31.140625 C 38.523438 32.046875 39.257812 32.78125 40.164062 32.78125 L 45.082031 32.78125 L 45.082031 34.863281 C 40.238281 36.261719 36.898438 40.691406 36.882812 45.734375 L 36.882812 47.535156 L 33.605469 47.535156 L 33.605469 44.257812 C 33.605469 43.351562 32.871094 42.617188 31.964844 42.617188 L 27.046875 42.617188 L 27.046875 45.898438 L 30.324219 45.898438 L 30.324219 49.175781 C 30.324219 50.082031 31.058594 50.816406 31.964844 50.816406 L 36.882812 50.816406 L 36.882812 55.898438 C 36.886719 57.542969 37.25 59.164062 37.949219 60.652344 L 33.605469 60.652344 C 32.699219 60.652344 31.964844 61.386719 31.964844 62.292969 L 31.964844 63.933594 L 28.6875 63.933594 L 28.6875 67.210938 L 27.046875 67.636719 C 26.210938 64.21875 25.664062 60.738281 25.40625 57.226562 C 25.324219 56.320312 24.523438 55.652344 23.621094 55.734375 C 22.714844 55.816406 22.046875 56.617188 22.128906 57.523438 C 23.191406 69.179688 24.949219 75.410156 32.585938 81.476562 C 37.835938 85.320312 43.40625 88.707031 49.230469 91.609375 C 49.308594 91.652344 49.390625 91.683594 49.476562 91.707031 L 49.589844 91.707031 C 49.859375 91.773438 50.140625 91.773438 50.410156 91.707031 L 50.542969 91.707031 C 50.621094 91.683594 50.699219 91.652344 50.769531 91.609375 C 60.476562 86.394531 66.953125 81.574219 71.167969 76.441406 Z M 77.871094 37.699219 L 77.871094 22.945312 C 77.875 22.09375 77.226562 21.378906 76.378906 21.304688 C 76.234375 21.304688 58.9375 19.664062 51.261719 10.417969 L 51.148438 10.320312 L 51.050781 10.203125 L 50.886719 10.121094 C 50.796875 10.058594 50.703125 10.003906 50.605469 9.957031 L 50.3125 9.957031 L 50 9.828125 L 49.394531 9.828125 C 49.296875 9.871094 49.203125 9.925781 49.113281 9.992188 L 48.949219 10.074219 L 48.851562 10.1875 L 48.738281 10.285156 C 41.082031 19.664062 23.765625 21.304688 23.617188 21.304688 C 22.769531 21.378906 22.125 22.09375 22.125 22.941406 L 22.125 49.175781 C 22.125 50.082031 22.859375 50.816406 23.765625 50.816406 C 24.671875 50.816406 25.40625 50.082031 25.40625 49.175781 L 25.40625 24.402344 C 29.765625 23.796875 42.523438 21.453125 50 13.894531 C 57.476562 21.453125 70.230469 23.730469 74.59375 24.402344 L 74.59375 37.699219 C 74.59375 38.605469 75.328125 39.339844 76.234375 39.339844 C 77.136719 39.339844 77.871094 38.605469 77.871094 37.699219 Z M 77.871094 37.699219 "/>
<path style=" stroke:none;fill-rule:nonzero;fill:rgb(100%,97.254902%,93.725491%);fill-opacity:1;" d="M 71.3125 67.210938 L 72.640625 67.769531 C 71.636719 70.140625 70.28125 72.351562 68.625 74.328125 C 64.757812 79.015625 58.855469 83.441406 50 88.296875 C 44.625 85.597656 39.488281 82.453125 34.636719 78.902344 C 30.859375 76.15625 28.171875 72.167969 27.046875 67.636719 L 28.6875 67.210938 L 33.605469 67.210938 C 34.511719 67.210938 35.246094 66.476562 35.246094 65.570312 L 35.246094 63.933594 L 40.246094 63.933594 C 42.355469 66.035156 45.214844 67.214844 48.195312 67.210938 L 51.804688 67.210938 C 54.8125 67.238281 57.707031 66.054688 59.835938 63.933594 L 64.757812 63.933594 L 64.757812 65.570312 C 64.757812 66.476562 65.492188 67.210938 66.394531 67.210938 Z M 71.3125 67.210938 "/>
<path style=" stroke:none;fill-rule:nonzero;fill:rgb(25.882354%,12.941177%,4.313726%);fill-opacity:1;" d="M 84.429688 18.023438 L 84.429688 59.195312 C 84.453125 70.894531 78.53125 81.808594 68.707031 88.164062 L 50.886719 99.742188 C 50.347656 100.085938 49.652344 100.085938 49.113281 99.742188 L 31.292969 88.164062 C 21.46875 81.808594 15.546875 70.894531 15.570312 59.195312 L 15.570312 18.023438 C 15.570312 17.117188 16.304688 16.386719 17.207031 16.386719 C 31.375 15.664062 41.6875 10.515625 48.753906 0.679688 C 49.285156 -0.0546875 50.308594 -0.21875 51.042969 0.3125 C 51.183594 0.414062 51.308594 0.539062 51.410156 0.679688 C 58.476562 10.515625 68.789062 15.664062 82.957031 16.386719 C 83.796875 16.46875 84.433594 17.179688 84.429688 18.023438 Z M 81.152344 59.195312 L 81.152344 19.566406 C 67.558594 18.550781 57.34375 13.566406 50 4.351562 C 42.65625 13.566406 32.441406 18.550781 18.847656 19.566406 L 18.847656 59.195312 C 18.820312 69.789062 24.183594 79.671875 33.078125 85.425781 L 50 96.414062 L 66.917969 85.410156 C 75.8125 79.660156 81.171875 69.785156 81.152344 59.195312 Z M 81.152344 59.195312 "/>
<path style=" stroke:none;fill-rule:nonzero;fill:rgb(25.882354%,12.941177%,4.313726%);fill-opacity:1;" d="M 77.871094 50.667969 C 78.855469 61.652344 76.789062 69.605469 71.167969 76.441406 C 66.953125 81.574219 60.476562 86.394531 50.769531 91.609375 C 50.699219 91.652344 50.621094 91.683594 50.542969 91.707031 L 50.410156 91.707031 C 50.140625 91.773438 49.859375 91.773438 49.589844 91.707031 L 49.476562 91.707031 C 49.390625 91.683594 49.308594 91.652344 49.230469 91.609375 C 43.40625 88.707031 37.835938 85.320312 32.585938 81.476562 C 24.945312 75.410156 23.191406 69.179688 22.128906 57.523438 C 22.046875 56.617188 22.714844 55.816406 23.621094 55.734375 C 24.523438 55.652344 25.324219 56.320312 25.40625 57.226562 C 25.664062 60.734375 26.210938 64.21875 27.046875 67.636719 C 28.175781 72.171875 30.871094 76.160156 34.652344 78.902344 C 39.5 82.453125 44.632812 85.597656 50 88.296875 C 58.871094 83.378906 64.753906 79.015625 68.640625 74.359375 C 70.296875 72.382812 71.652344 70.175781 72.660156 67.800781 C 74.714844 62.441406 75.382812 56.648438 74.59375 50.964844 C 74.511719 50.058594 75.179688 49.257812 76.085938 49.175781 C 76.992188 49.09375 77.789062 49.761719 77.871094 50.667969 Z M 77.871094 50.667969 "/>
<path style=" stroke:none;fill-rule:nonzero;fill:rgb(25.882354%,12.941177%,4.313726%);fill-opacity:1;" d="M 77.871094 22.945312 L 77.871094 37.699219 C 77.871094 38.605469 77.140625 39.339844 76.234375 39.339844 C 75.328125 39.339844 74.59375 38.605469 74.59375 37.699219 L 74.59375 24.402344 C 70.230469 23.796875 57.476562 21.453125 50 13.894531 C 42.523438 21.453125 29.769531 23.730469 25.40625 24.402344 L 25.40625 49.175781 C 25.40625 50.082031 24.671875 50.816406 23.765625 50.816406 C 22.859375 50.816406 22.128906 50.082031 22.128906 49.175781 L 22.128906 22.945312 C 22.125 22.09375 22.773438 21.378906 23.617188 21.304688 C 23.800781 21.304688 41.082031 19.664062 48.738281 10.417969 L 48.851562 10.320312 L 48.949219 10.203125 L 49.113281 10.121094 C 49.203125 10.058594 49.296875 10.003906 49.394531 9.957031 L 49.6875 9.957031 L 50 9.828125 L 50.605469 9.828125 C 50.703125 9.871094 50.796875 9.925781 50.886719 9.992188 L 51.050781 10.074219 L 51.148438 10.1875 L 51.261719 10.285156 C 58.9375 19.664062 76.234375 21.304688 76.382812 21.304688 C 77.226562 21.378906 77.875 22.09375 77.871094 22.945312 Z M 77.871094 22.945312 "/>
<path style=" stroke:none;fill-rule:nonzero;fill:rgb(25.882354%,12.941177%,4.313726%);fill-opacity:1;" d="M 72.953125 42.617188 L 72.953125 45.898438 L 69.675781 45.898438 L 69.675781 49.175781 C 69.675781 50.082031 68.941406 50.816406 68.035156 50.816406 L 63.117188 50.816406 L 63.117188 55.898438 C 63.113281 57.542969 62.75 59.164062 62.050781 60.652344 L 66.394531 60.652344 C 67.300781 60.652344 68.035156 61.386719 68.035156 62.292969 L 68.035156 63.933594 L 71.3125 63.933594 L 71.3125 67.210938 L 66.394531 67.210938 C 65.488281 67.210938 64.757812 66.476562 64.757812 65.570312 L 64.757812 63.933594 L 59.835938 63.933594 C 57.726562 66.035156 54.867188 67.214844 51.886719 67.210938 L 48.195312 67.210938 C 45.214844 67.214844 42.355469 66.035156 40.246094 63.933594 L 35.242188 63.933594 L 35.242188 65.570312 C 35.242188 66.476562 34.507812 67.210938 33.605469 67.210938 L 28.683594 67.210938 L 28.683594 63.933594 L 31.964844 63.933594 L 31.964844 62.292969 C 31.964844 61.386719 32.699219 60.652344 33.605469 60.652344 L 37.949219 60.652344 C 37.25 59.164062 36.886719 57.542969 36.882812 55.898438 L 36.882812 50.816406 L 31.964844 50.816406 C 31.058594 50.816406 30.324219 50.082031 30.324219 49.175781 L 30.324219 45.898438 L 27.046875 45.898438 L 27.046875 42.617188 L 31.964844 42.617188 C 32.871094 42.617188 33.605469 43.351562 33.605469 44.257812 L 33.605469 47.535156 L 36.882812 47.535156 L 36.882812 45.734375 C 36.894531 40.691406 40.234375 36.261719 45.082031 34.863281 L 45.082031 32.78125 L 40.164062 32.78125 C 39.257812 32.78125 38.523438 32.046875 38.523438 31.140625 L 38.523438 27.863281 L 41.800781 27.863281 L 41.800781 29.5 L 46.71875 29.5 C 47.625 29.5 48.359375 30.234375 48.359375 31.140625 L 48.359375 34.421875 L 51.640625 34.421875 L 51.640625 31.140625 C 51.640625 30.234375 52.375 29.5 53.277344 29.5 L 58.199219 29.5 L 58.199219 27.863281 L 61.476562 27.863281 L 61.476562 31.140625 C 61.476562 32.046875 60.742188 32.78125 59.835938 32.78125 L 54.917969 32.78125 L 54.917969 34.863281 C 59.761719 36.261719 63.101562 40.691406 63.117188 45.734375 L 63.117188 47.539062 L 66.394531 47.539062 L 66.394531 44.257812 C 66.394531 43.351562 67.128906 42.617188 68.035156 42.617188 Z M 59.835938 55.898438 L 59.835938 47.535156 L 51.640625 47.535156 L 51.640625 63.933594 L 51.804688 63.933594 C 54.332031 63.910156 56.703125 62.695312 58.199219 60.652344 C 59.242188 59.285156 59.816406 57.617188 59.835938 55.898438 Z M 40.308594 44.257812 L 59.691406 44.257812 C 58.972656 40.464844 55.664062 37.710938 51.804688 37.699219 L 48.195312 37.699219 C 44.335938 37.710938 41.027344 40.464844 40.308594 44.257812 Z M 48.359375 63.933594 L 48.359375 47.535156 L 40.164062 47.535156 L 40.164062 55.898438 C 40.183594 57.617188 40.757812 59.285156 41.800781 60.652344 C 43.296875 62.695312 45.667969 63.910156 48.195312 63.933594 Z M 48.359375 63.933594 "/>
<path style=" stroke:none;fill-rule:nonzero;fill:rgb(91.37255%,27.058825%,27.058825%);fill-opacity:1;" d="M 59.835938 47.535156 L 59.835938 55.898438 C 59.816406 57.617188 59.242188 59.285156 58.199219 60.652344 C 56.703125 62.695312 54.332031 63.910156 51.804688 63.933594 L 51.640625 63.933594 L 51.640625 47.535156 Z M 59.835938 47.535156 "/>
<path style=" stroke:none;fill-rule:nonzero;fill:rgb(93.333334%,33.725491%,33.725491%);fill-opacity:1;" d="M 56.558594 47.535156 L 56.558594 55.898438 C 56.570312 57.53125 56.25 59.152344 55.609375 60.652344 C 55.082031 62.40625 53.582031 63.6875 51.769531 63.933594 L 51.640625 63.933594 L 51.640625 47.535156 Z M 56.558594 47.535156 "/>
<path style=" stroke:none;fill-rule:nonzero;fill:rgb(42.745098%,25.490198%,10.980392%);fill-opacity:1;" d="M 59.691406 44.257812 L 40.308594 44.257812 C 41.027344 40.464844 44.335938 37.710938 48.195312 37.699219 L 51.804688 37.699219 C 55.664062 37.710938 58.972656 40.464844 59.691406 44.257812 Z M 59.691406 44.257812 "/>
<path style=" stroke:none;fill-rule:nonzero;fill:rgb(60.000002%,40.000001%,19.607843%);fill-opacity:1;" d="M 59.691406 44.257812 L 40.308594 44.257812 C 41.015625 42.386719 44.277344 40.976562 48.195312 40.976562 L 51.804688 40.976562 C 55.722656 40.976562 58.984375 42.40625 59.691406 44.257812 Z M 59.691406 44.257812 "/>
<path style=" stroke:none;fill-rule:nonzero;fill:rgb(91.37255%,27.058825%,27.058825%);fill-opacity:1;" d="M 48.359375 47.535156 L 48.359375 63.933594 L 48.195312 63.933594 C 45.667969 63.910156 43.296875 62.695312 41.800781 60.652344 C 40.757812 59.285156 40.183594 57.617188 40.164062 55.898438 L 40.164062 47.535156 Z M 48.359375 47.535156 "/>
<path style=" stroke:none;fill-rule:nonzero;fill:rgb(93.333334%,33.725491%,33.725491%);fill-opacity:1;" d="M 48.359375 47.535156 L 48.359375 63.933594 L 48.261719 63.933594 C 46.449219 63.6875 44.949219 62.40625 44.425781 60.652344 C 43.773438 59.152344 43.4375 57.535156 43.441406 55.898438 L 43.441406 47.535156 Z M 48.359375 47.535156 "/>
<path style=" stroke:none;fill-rule:nonzero;fill:rgb(87.843138%,79.607844%,70.980394%);fill-opacity:1;" d="M 50 4.351562 C 42.65625 13.566406 32.441406 18.550781 18.847656 19.566406 L 18.847656 59.195312 C 18.820312 69.789062 24.183594 79.671875 33.078125 85.425781 L 50 96.414062 L 66.921875 85.410156 C 75.816406 79.65625 81.179688 69.773438 81.152344 59.179688 L 81.152344 19.566406 C 67.558594 18.550781 57.34375 13.566406 50 4.351562 Z M 71.167969 76.492188 C 66.953125 81.625 60.476562 86.445312 50.769531 91.65625 C 50.699219 91.699219 50.621094 91.734375 50.542969 91.757812 L 50.410156 91.757812 C 50.140625 91.820312 49.859375 91.820312 49.589844 91.757812 L 49.476562 91.757812 C 49.390625 91.734375 49.304688 91.699219 49.230469 91.65625 C 43.402344 88.742188 37.835938 85.335938 32.585938 81.476562 C 24.945312 75.410156 23.191406 69.179688 22.128906 57.523438 C 22.042969 56.621094 22.703125 55.820312 23.605469 55.734375 C 23.609375 55.734375 23.613281 55.734375 23.621094 55.734375 L 23.765625 55.734375 L 23.765625 50.816406 C 22.859375 50.816406 22.128906 50.082031 22.128906 49.175781 L 22.128906 22.945312 C 22.125 22.09375 22.773438 21.378906 23.621094 21.304688 C 23.800781 21.304688 41.082031 19.664062 48.738281 10.417969 L 48.851562 10.320312 L 48.949219 10.203125 L 49.113281 10.203125 C 49.203125 10.140625 49.296875 10.085938 49.394531 10.039062 L 49.6875 10.039062 L 50 9.828125 L 50.605469 9.828125 C 50.703125 9.871094 50.796875 9.925781 50.886719 9.992188 L 51.050781 9.992188 L 51.148438 10.105469 L 51.261719 10.203125 C 58.9375 19.664062 76.234375 21.304688 76.382812 21.304688 C 77.226562 21.378906 77.875 22.09375 77.871094 22.945312 L 77.871094 37.699219 C 77.871094 38.605469 77.140625 39.339844 76.234375 39.339844 L 76.234375 49.175781 C 77.078125 49.171875 77.789062 49.8125 77.871094 50.652344 C 78.855469 61.652344 76.789062 69.605469 71.167969 76.441406 Z M 71.167969 76.492188 "/>
</g>
</svg>
