<?xml version="1.0" encoding="UTF-8"?>
<svg xmlns="http://www.w3.org/2000/svg" xmlns:xlink="http://www.w3.org/1999/xlink" width="100px" height="100px" viewBox="0 0 100 100" version="1.1">
<g id="surface1">
<path style="fill:none;stroke-width:1;stroke-linecap:round;stroke-linejoin:round;stroke:rgb(100%,98.039216%,98.039216%);stroke-opacity:1;stroke-miterlimit:4;" d="M 38.739375 16.550625 L 38.739375 17.55 C 38.739375 27.620625 31.100625 39.159375 17.120625 39.159375 C 12.99375 39.16875 8.953125 37.96875 5.499375 35.709375 C 6.099375 35.791875 6.705 35.8275 7.310625 35.82 C 10.730625 35.829375 14.055 34.6875 16.749375 32.58 C 13.490625 32.53125 10.629375 30.399375 9.650625 27.290625 C 10.123125 27.39 10.606875 27.440625 11.090625 27.440625 C 11.765625 27.440625 12.43875 27.34875 13.089375 27.170625 C 9.54 26.461875 6.988125 23.34 6.999375 19.719375 L 6.999375 19.62 C 8.053125 20.20875 9.234375 20.53125 10.44 20.559375 C 7.108125 18.3675 6.06 13.9575 8.049375 10.5 C 11.91375 15.25125 17.61375 18.13875 23.73 18.440625 C 23.58 17.8725 23.50875 17.2875 23.52 16.700625 C 23.40375 13.5225 25.291875 10.6125 28.24125 9.42375 C 31.190625 8.235 34.569375 9.020625 36.69 11.390625 C 38.3925 11.0475 40.02375 10.42125 41.52 9.54 C 40.951875 11.330625 39.74625 12.85125 38.13 13.809375 C 39.639375 13.60125 41.11125 13.1775 42.500625 12.549375 C 41.49375 14.09625 40.220625 15.45 38.739375 16.550625 Z M 38.739375 16.550625 " transform="matrix(2.083333,0,0,2.083333,0,0)"/>
</g>
</svg>
